<svg xmlns="http://www.w3.org/2000/svg" xmlns:xlink="http://www.w3.org/1999/xlink" viewBox="0,0,256,256" width="60px" height="60px" fill-rule="nonzero"><g fill-opacity="0" fill="#dddddd" fill-rule="nonzero" stroke="none" stroke-width="1" stroke-linecap="butt" stroke-linejoin="miter" stroke-miterlimit="10" stroke-dasharray="" stroke-dashoffset="0" font-family="none" font-weight="none" font-size="none" text-anchor="none" style="mix-blend-mode: normal"><path d="M0,256v-256h256v256z" id="bgRectangle"></path></g><g fill="none" fill-rule="nonzero" stroke="none" stroke-width="1" stroke-linecap="butt" stroke-linejoin="miter" stroke-miterlimit="10" stroke-dasharray="" stroke-dashoffset="0" font-family="none" font-weight="none" font-size="none" text-anchor="none" style="mix-blend-mode: normal"><g transform="scale(0.53333,0.53333)"><path d="M91,350c-17.679,0 -32,-14.319 -32,-32c0,-8.408 0,-189.504 0,-207c0,-17.67 14.33,-32 32,-32c11.375,0 224.728,0 235.58,0c14.88,0 27.8,10.26 31.17,24.76l24.2,104.24h58.05c17.67,0 32,14.33 32,32v78c0,17.67 -14.33,32 -32,32z" fill="#fe4f60"></path><path d="M175.32,132c9.95,0 17.49,8.98 15.76,18.78l-7.75,44c-1.35,7.64 -7.99,13.22 -15.76,13.22c0,0 -41.75,0 -42.57,0c-8.84,0 -16,-7.16 -16,-16c0,-0.8 0,-43 0,-44c0,-8.84 7.16,-16 16,-16z" fill="#e8f8fc"></path><path d="M323.38,188.13c2.52,10.09 -5.12,19.87 -15.52,19.87h-64.39c-10.08,0 -17.65,-9.21 -15.7,-19.1l8.68,-44c1.48,-7.5 8.06,-12.9 15.7,-12.9h44.74c7.34,0 13.75,5 15.52,12.13z" fill="#e8f8fc"></path><path d="M59,185v120h-27c-13.25,0 -24,-10.75 -24,-24v-72c0,-13.25 10.75,-24 24,-24z" fill="#42434d"></path><circle cx="366" cy="350" r="51" fill="#42434d"></circle><circle cx="155" cy="350" r="51" fill="#42434d"></circle><path d="M380.377,331.382c-15.456,5.09 -27.913,17.524 -33.007,32.985c-4.934,14.975 -26.432,14.293 -30.579,-0.918c-10.367,-38.033 24.803,-72.998 62.684,-62.65c15.218,4.157 15.887,25.649 0.902,30.583z" fill="#585966"></path><path d="M169.377,331.382c-15.456,5.09 -27.913,17.524 -33.007,32.985c-4.934,14.975 -26.432,14.293 -30.579,-0.918c-10.367,-38.033 24.803,-72.998 62.684,-62.65c15.218,4.157 15.887,25.649 0.902,30.583z" fill="#585966"></path><path d="M345.644,119h-214.644c-17.673,0 -32,14.327 -32,32v167.119c0,26.061 -40,27.393 -40,-0.119v-207c0,-17.673 14.327,-32 32,-32h235.58c14.88,0 27.8,10.26 31.17,24.76c1.81,7.792 -4.106,15.24 -12.106,15.24z" fill="#ff6d7a"></path><path d="M183.33,194.78c-1.35,7.64 -7.99,13.22 -15.76,13.22c0,0 -41.75,0 -42.57,0c-11.448,0 -13.605,-15.88 -2.973,-19.333c23.861,-7.749 43.804,-22.722 57.87,-42.553c3.765,-5.308 12.272,-1.926 11.212,4.495c-0.023,0.14 -7.754,44.032 -7.779,44.171z" fill="#d6f4fc"></path><path d="M307.86,208h-64.39c-5.468,0 -5.856,-7.71 -0.752,-8.567c28.863,-4.848 52.099,-24.832 57.339,-54.817c1.16,-6.638 10.609,-7.178 12.309,-0.657c0.035,0.134 10.98,44.037 11.014,44.171c2.52,10.09 -5.12,19.87 -15.52,19.87z" fill="#d6f4fc"></path><path d="M59,185v30h-7c-13.255,0 -24,10.745 -24,24v42.487c0,12.822 -19.301,13.583 -19.967,0.778c-0.051,-0.986 -0.033,-74.252 -0.033,-73.265c0,-13.255 10.745,-24 24,-24z" fill="#585966"></path><path d="M265,342h-51.557c-3.918,-28.76 -28.625,-51 -58.443,-51c-32.533,0 -59,26.468 -59,59c0,32.532 26.467,59 59,59c29.818,0 54.525,-22.24 58.443,-51h51.557c4.418,0 8,-3.582 8,-8c0,-4.418 -3.582,-8 -8,-8zM155,393c-23.71,0 -43,-19.29 -43,-43c0,-23.71 19.29,-43 43,-43c23.71,0 43,19.29 43,43c0,23.71 -19.29,43 -43,43zM440,200h-51.694l-22.764,-98.047c-4.231,-18.224 -20.254,-30.953 -38.964,-30.953h-235.578c-22.056,0 -40,17.944 -40,40v66h-19c-17.645,0 -32,14.355 -32,32v72c0,4.418 3.582,8 8,8c4.418,0 8,-3.582 8,-8v-72c0,-8.822 7.178,-16 16,-16h19v125c0,4.418 3.582,8 8,8c4.418,0 8,-3.582 8,-8v-207c0,-13.233 10.766,-24 24,-24h235.578c11.226,0 20.84,7.637 23.378,18.572l24.201,104.237c0.842,3.625 4.071,6.19 7.793,6.19h58.05c13.233,0 24,10.767 24,24v78c0,13.233 -10.767,24 -24,24h-15.557c-3.918,-28.76 -28.625,-51 -58.443,-51c-32.532,0 -59,26.468 -59,59c0,32.532 26.468,59 59,59c29.818,0 54.525,-22.24 58.443,-51h15.557c22.056,0 40,-17.944 40,-40v-78c0,-22.055 -17.944,-39.999 -40,-39.999zM366,393c-23.71,0 -43,-19.29 -43,-43c0,-23.71 19.29,-43 43,-43c23.71,0 43,19.29 43,43c0,23.71 -19.29,43 -43,43zM315.621,190.064l-10.972,-44c-0.89,-3.571 -4.081,-6.064 -7.762,-6.064h-44.737c-3.81,0 -7.11,2.713 -7.848,6.451l-8.685,44c-0.977,4.948 2.813,9.549 7.849,9.549h44.393c4.418,0 8,3.582 8,8c0,4.418 -3.582,8 -8,8h-44.393c-15.134,0 -26.471,-13.827 -23.546,-28.647l8.684,-43.999c2.214,-11.214 12.116,-19.354 23.546,-19.354h44.737c11.041,0 20.617,7.481 23.287,18.194l10.972,43.999c1.068,4.287 -1.54,8.629 -5.827,9.698c-4.285,1.074 -8.629,-1.538 -9.698,-5.827zM183.202,149.388c0.864,-4.901 -2.899,-9.388 -7.878,-9.388h-50.324c-4.411,0 -8,3.589 -8,8v22c0,4.418 -3.582,8 -8,8c-4.418,0 -8,-3.582 -8,-8v-22c0,-13.233 10.766,-24 24,-24h50.323c14.929,0 26.223,13.485 23.636,28.164l-7.75,43.999c-2.025,11.494 -11.966,19.837 -23.637,19.837h-32.572c-4.418,0 -8,-3.582 -8,-8c0,-4.418 3.582,-8 8,-8h32.572c3.89,0 7.204,-2.781 7.878,-6.612zM411,269c-4.418,0 -8,-3.582 -8,-8c0,-4.418 3.582,-8 8,-8h13c4.418,0 8,3.582 8,8c0,4.418 -3.582,8 -8,8z" fill="#000000"></path></g></g></svg>