<svg xmlns="http://www.w3.org/2000/svg" xmlns:xlink="http://www.w3.org/1999/xlink" viewBox="0,0,256,256" width="48px" height="48px" fill-rule="nonzero"><g fill-opacity="0" fill="#dddddd" fill-rule="nonzero" stroke="none" stroke-width="1" stroke-linecap="butt" stroke-linejoin="miter" stroke-miterlimit="10" stroke-dasharray="" stroke-dashoffset="0" font-family="none" font-weight="none" font-size="none" text-anchor="none" style="mix-blend-mode: normal"><path d="M0,256v-256h256v256z" id="bgRectangle"></path></g><g fill="none" fill-rule="nonzero" stroke="none" stroke-width="1" stroke-linecap="butt" stroke-linejoin="miter" stroke-miterlimit="10" stroke-dasharray="" stroke-dashoffset="0" font-family="none" font-weight="none" font-size="none" text-anchor="none" style="mix-blend-mode: normal"><g transform="scale(0.5,0.5)"><path d="M472,224h-128v-32h96c17.67311,0 32,14.32689 32,32z" fill="#f15473"></path><path d="M472,232h-128c-4.41828,0 -8,-3.58172 -8,-8v-32c0,-4.41828 3.58172,-8 8,-8h96c22.09139,0 40,17.90861 40,40c0,4.41828 -3.58172,8 -8,8zM352,216h110.63c-3.39058,-9.59001 -12.45826,-16.00109 -22.63,-16h-88z" fill="#000000"></path><rect x="48" y="360" width="456" height="32" fill="#f15473"></rect><path d="M504,400h-144c-4.41828,0 -8,-3.58172 -8,-8c0,-4.41828 3.58172,-8 8,-8h136v-16h-440v16h264c4.41828,0 8,3.58172 8,8c0,4.41828 -3.58172,8 -8,8h-272c-4.41828,0 -8,-3.58172 -8,-8v-32c0,-4.41828 3.58172,-8 8,-8h456c4.41828,0 8,3.58172 8,8v32c0,4.41828 -3.58172,8 -8,8z" fill="#000000"></path><path d="M504,240v120h-424l-32,-40v-200c0,-8.83656 7.16344,-16 16,-16h246.4c5.90971,-0.00098 11.33874,3.25567 14.12,8.47l59.48,111.53h104c8.83656,0 16,7.16344 16,16z" fill="#18394b"></path><path d="M504,336v24h-424l-19.2,-24z" fill="#e59bfa"></path><path d="M504,368h-424c-2.43093,0.00152 -4.73067,-1.10236 -6.25,-3l-32,-40c-1.13423,-1.41956 -1.75142,-3.18296 -1.75,-5v-160c0,-4.41828 3.58172,-8 8,-8c4.41828,0 8,3.58172 8,8v157.19l27.84,34.81h412.16v-112c0,-4.41828 -3.58172,-8 -8,-8h-104c-2.95593,-0.00049 -5.67071,-1.6309 -7.06,-4.24l-59.48,-111.52c-1.38929,-2.6091 -4.10407,-4.23951 -7.06,-4.24h-246.4c-4.41828,0 -8,3.58172 -8,8v8c0,4.41828 -3.58172,8 -8,8c-4.41828,0 -8,-3.58172 -8,-8v-8c0,-13.25483 10.74517,-24 24,-24h246.4c8.86564,-0.00049 17.00945,4.88657 21.18,12.71l57.22,107.29h99.2c13.25483,0 24,10.74517 24,24v120c0,4.41828 -3.58172,8 -8,8z" fill="#000000"></path><rect x="8" y="160" width="40" height="128" fill="#323636"></rect><rect x="8" y="264" width="40" height="24" fill="#455152"></rect><path d="M48,296h-40c-4.41828,0 -8,-3.58172 -8,-8v-128c0,-4.41828 3.58172,-8 8,-8h40c4.41828,0 8,3.58172 8,8v128c0,4.41828 -3.58172,8 -8,8zM16,280h24v-112h-24z" fill="#000000"></path><path d="M384,224h-136v-88h89.07z" fill="#80aab4"></path><path d="M384,232h-136c-4.41828,0 -8,-3.58172 -8,-8v-88c0,-4.41828 3.58172,-8 8,-8h89.07c2.95593,0.00049 5.67071,1.6309 7.06,4.24l46.93,88c1.32019,2.47934 1.24336,5.46942 -0.20242,7.87768c-1.44578,2.40826 -4.04867,3.88185 -6.85758,3.88232zM256,216h114.67l-38.4,-72h-76.27z" fill="#000000"></path><rect x="96" y="136" width="112" height="88" fill="#80aab4"></rect><path d="M208,232h-112c-4.41828,0 -8,-3.58172 -8,-8v-88c0,-4.41828 3.58172,-8 8,-8h112c4.41828,0 8,3.58172 8,8v88c0,4.41828 -3.58172,8 -8,8zM104,216h96v-72h-96z" fill="#000000"></path><path d="M481,304h23v-48h-23c-13.25483,0 -24,10.74517 -24,24c0,13.25483 10.74517,24 24,24z" fill="#faeec8"></path><path d="M504,312h-23c-17.67311,0 -32,-14.32689 -32,-32c0,-17.67311 14.32689,-32 32,-32h23c4.41828,0 8,3.58172 8,8v48c0,4.41828 -3.58172,8 -8,8zM481,264c-8.83656,0 -16,7.16344 -16,16c0,8.83656 7.16344,16 16,16h15v-32z" fill="#000000"></path><path d="M272,264h-24c-4.41828,0 -8,-3.58172 -8,-8c0,-4.41828 3.58172,-8 8,-8h24c4.41828,0 8,3.58172 8,8c0,4.41828 -3.58172,8 -8,8z" fill="#000000"></path><path d="M208,264h-24c-4.41828,0 -8,-3.58172 -8,-8c0,-4.41828 3.58172,-8 8,-8h24c4.41828,0 8,3.58172 8,8c0,4.41828 -3.58172,8 -8,8z" fill="#000000"></path><circle cx="152" cy="384" r="56" fill="#323636"></circle><path d="M152,416c-26.30425,0.00039 -49.06337,-18.30677 -54.7,-44c-4.90898,22.38375 4.31503,45.49975 23.28542,58.35489c18.97039,12.85514 43.85878,12.85514 62.82917,0c18.97039,-12.85514 28.19439,-35.97114 23.28542,-58.35489c-5.63663,25.69323 -28.39575,44.00039 -54.7,44z" fill="#455152"></path><path d="M152,448c-35.34622,0 -64,-28.65378 -64,-64c0,-35.34622 28.65378,-64 64,-64c35.34622,0 64,28.65378 64,64c-0.03858,35.33023 -28.66977,63.96142 -64,64zM152,336c-26.50967,0 -48,21.49033 -48,48c0,26.50967 21.49033,48 48,48c26.50967,0 48,-21.49033 48,-48c-0.02756,-26.49824 -21.50176,-47.97244 -48,-48z" fill="#000000"></path><circle cx="152" cy="384" r="24" fill="#f15473"></circle><path d="M152,416c-17.67311,0 -32,-14.32689 -32,-32c0,-17.67311 14.32689,-32 32,-32c17.67311,0 32,14.32689 32,32c0,17.67311 -14.32689,32 -32,32zM152,368c-8.83656,0 -16,7.16344 -16,16c0,8.83656 7.16344,16 16,16c8.83656,0 16,-7.16344 16,-16c0,-8.83656 -7.16344,-16 -16,-16z" fill="#000000"></path><circle cx="408" cy="384" r="56" fill="#323636"></circle><path d="M408,416c-26.30425,0.00039 -49.06337,-18.30677 -54.7,-44c-4.90898,22.38375 4.31503,45.49975 23.28542,58.35489c18.97039,12.85514 43.85878,12.85514 62.82917,0c18.97039,-12.85514 28.19439,-35.97114 23.28542,-58.35489c-5.63663,25.69323 -28.39575,44.00039 -54.7,44z" fill="#455152"></path><path d="M408,448c-35.34622,0 -64,-28.65378 -64,-64c0,-35.34622 28.65378,-64 64,-64c35.34622,0 64,28.65378 64,64c-0.03858,35.33023 -28.66977,63.96142 -64,64zM408,336c-26.50967,0 -48,21.49033 -48,48c0,26.50967 21.49033,48 48,48c26.50967,0 48,-21.49033 48,-48c-0.02756,-26.49824 -21.50176,-47.97244 -48,-48z" fill="#000000"></path><circle cx="408" cy="384" r="24" fill="#f15473"></circle><path d="M408,416c-17.67311,0 -32,-14.32689 -32,-32c0,-17.67311 14.32689,-32 32,-32c17.67311,0 32,14.32689 32,32c0,17.67311 -14.32689,32 -32,32zM408,368c-8.83656,0 -16,7.16344 -16,16c0,8.83656 7.16344,16 16,16c8.83656,0 16,-7.16344 16,-16c0,-8.83656 -7.16344,-16 -16,-16z" fill="#000000"></path><path d="M80,112c-4.41828,0 -8,-3.58172 -8,-8v-32c0,-4.41828 3.58172,-8 8,-8c4.41828,0 8,3.58172 8,8v32c0,4.41828 -3.58172,8 -8,8z" fill="#000000"></path><path d="M288,112c-4.41828,0 -8,-3.58172 -8,-8v-32c0,-4.41828 3.58172,-8 8,-8c4.41828,0 8,3.58172 8,8v32c0,4.41828 -3.58172,8 -8,8z" fill="#000000"></path><path d="M320,80h-272c-4.41828,0 -8,-3.58172 -8,-8c0,-4.41828 3.58172,-8 8,-8h272c4.41828,0 8,3.58172 8,8c0,4.41828 -3.58172,8 -8,8z" fill="#000000"></path><rect x="48" y="256" width="32" height="32" fill="#cd4f5f"></rect><path d="M80,296h-32c-4.41828,0 -8,-3.58172 -8,-8v-32c0,-4.41828 3.58172,-8 8,-8h32c4.41828,0 8,3.58172 8,8v32c0,4.41828 -3.58172,8 -8,8zM56,280h16v-16h-16z" fill="#000000"></path><rect x="48" y="288" width="32" height="32" fill="#faeec8"></rect><path d="M80,328h-32c-4.41828,0 -8,-3.58172 -8,-8v-32c0,-4.41828 3.58172,-8 8,-8h32c4.41828,0 8,3.58172 8,8v32c0,4.41828 -3.58172,8 -8,8zM56,312h16v-16h-16z" fill="#000000"></path></g></g></svg>